<svg width="42" height="63" viewBox="0 0 42 63" fill="none" xmlns="http://www.w3.org/2000/svg">
<path fill-rule="evenodd" clip-rule="evenodd" d="M21 0.833374C32.2758 0.833374 41.4167 9.97423 41.4167 21.25C41.4167 24.6594 40.5834 27.8718 39.104 30.6984L21 62.0834L3.3154 31.4596C1.57499 28.4542 0.583328 24.9693 0.583328 21.25C0.583328 9.97423 9.72418 0.833374 21 0.833374ZM21 6.66671C12.9458 6.66671 6.41666 13.1959 6.41666 21.25C6.41666 23.566 6.95094 25.7882 7.962 27.7943L8.45198 28.6893L21 50.4167L33.6366 28.5363C34.9071 26.3423 35.5833 23.8555 35.5833 21.25C35.5833 13.1959 29.0541 6.66671 21 6.66671ZM21 12.5C25.8325 12.5 29.75 16.4175 29.75 21.25C29.75 26.0825 25.8325 30 21 30C16.1675 30 12.25 26.0825 12.25 21.25C12.25 16.4175 16.1675 12.5 21 12.5ZM21 18.3334C19.3892 18.3334 18.0833 19.6392 18.0833 21.25C18.0833 22.8609 19.3892 24.1667 21 24.1667C22.6108 24.1667 23.9167 22.8609 23.9167 21.25C23.9167 19.6392 22.6108 18.3334 21 18.3334Z" fill="#C0B7E8"/>
</svg>
