<svg width="114" height="119" viewBox="0 0 114 119" fill="none" xmlns="http://www.w3.org/2000/svg">
<g clip-path="url(#clip0_1_5)" filter="url(#filter0_d_1_5)">
<path d="M106.772 41.2577C108.108 48.9755 99.9123 46.9198 99.9123 46.9198C96.4822 37.2546 90.9941 38.1562 90.9941 38.1562C95.2907 41.2938 95.6157 43.9626 95.6157 43.9626C84.17 35.8481 68.6082 42.3757 62.6868 45.4412C59.365 40.7528 52.6493 30.2581 55.0323 25.4976C58.1735 19.2584 64.5643 22.8288 64.5643 22.8288C77.4904 22.6124 76.7682 17.9962 76.7682 17.9962C73.3382 20.6649 63.2284 17.9962 63.2284 17.9962C72.0022 17.9962 75.7212 14.4258 75.7212 14.4258C69.1859 16.0487 61.8925 9.08827 61.8925 9.08827C59.2206 -4.58015 46.8723 1.22622 46.8723 1.22622C54.599 -0.108159 52.541 8.07846 52.541 8.07846C42.8645 11.5046 43.7672 16.9864 43.7672 16.9864C46.9084 12.6947 49.5803 12.3701 49.5803 12.3701C40.7343 24.8124 49.2553 42.1233 51.7828 46.6313C47.1612 49.8411 36.3293 56.9097 31.455 54.4573C25.2086 51.3197 28.7831 44.9363 28.7831 44.9363C28.6387 32.0252 24.0171 32.7465 24.0171 32.7465C26.6889 36.1727 24.0171 46.2707 24.0171 46.2707C24.0171 37.507 20.4426 33.7924 20.4426 33.7924C22.0674 40.3201 15.0989 47.6051 15.0989 47.6051C1.41461 50.2738 7.2277 62.6079 7.2277 62.6079C5.89178 54.8901 14.0879 56.9458 14.0879 56.9458C17.518 66.611 23.0061 65.7094 23.0061 65.7094C18.7095 62.5718 18.3845 59.903 18.3845 59.903C30.4801 68.4864 47.1973 60.6965 52.2521 57.9556C55.6461 62.8243 61.9647 72.8502 59.6178 77.5025C56.4766 83.7416 50.0858 80.1712 50.0858 80.1712C37.1597 80.3155 37.8819 84.9318 37.8819 84.9318C41.312 82.263 51.4217 84.9318 51.4217 84.9318C42.6479 84.9318 38.9289 88.5021 38.9289 88.5021C45.4642 86.8792 52.7576 93.8397 52.7576 93.8397C55.4295 107.508 67.7778 101.702 67.7778 101.702C60.0511 103.036 62.1091 94.8495 62.1091 94.8495C71.7856 91.4233 70.8829 85.9416 70.8829 85.9416C67.7417 90.2332 65.0698 90.5578 65.0698 90.5578C73.7353 78.4041 65.7558 61.562 63.0479 56.6212C67.9583 53.1951 77.8875 47.0641 82.473 49.3722C88.7194 52.5098 85.1449 58.8932 85.1449 58.8932C85.2893 71.8043 89.9109 71.083 89.9109 71.083C87.239 67.6569 89.9109 57.5589 89.9109 57.5589C89.9109 66.3225 93.4854 70.0371 93.4854 70.0371C91.8606 63.5095 98.8291 56.2245 98.8291 56.2245C112.586 53.5918 106.772 41.2577 106.772 41.2577Z" fill="url(#paint0_linear_1_5)"/>
</g>
<defs>
<filter id="filter0_d_1_5" x="0" y="0" width="114" height="119" filterUnits="userSpaceOnUse" color-interpolation-filters="sRGB">
<feFlood flood-opacity="0" result="BackgroundImageFix"/>
<feColorMatrix in="SourceAlpha" type="matrix" values="0 0 0 0 0 0 0 0 0 0 0 0 0 0 0 0 0 0 127 0" result="hardAlpha"/>
<feOffset dy="10"/>
<feGaussianBlur stdDeviation="3"/>
<feComposite in2="hardAlpha" operator="out"/>
<feColorMatrix type="matrix" values="0 0 0 0 0 0 0 0 0 0 0 0 0 0 0 0 0 0 0.25 0"/>
<feBlend mode="normal" in2="BackgroundImageFix" result="effect1_dropShadow_1_5"/>
<feBlend mode="normal" in="SourceGraphic" in2="effect1_dropShadow_1_5" result="shape"/>
</filter>
<linearGradient id="paint0_linear_1_5" x1="56.9966" y1="0.00109863" x2="56.9966" y2="102.927" gradientUnits="userSpaceOnUse">
<stop stop-color="#C0B7E8"/>
<stop offset="1" stop-color="#8176AF"/>
</linearGradient>
<clipPath id="clip0_1_5">
<rect width="102" height="103" fill="white" transform="translate(6)"/>
</clipPath>
</defs>
</svg>
